<svg xmlns="http://www.w3.org/2000/svg" viewBox="0 0 897 200"><title>pitchero-logo</title><path d="M57.9,18.7H0v177H43.3V140.2H62.9c27.5,0,39.5-5,51.7-15.3s18.6-28.5,18.6-46.4-6.9-35.4-20.8-46.9c-9.6-7.9-21.7-12.9-54.5-12.9ZM43.3,100.5V58.4H60c9.8,0,29.9,0,29.9,20.8s-19.6,21.3-28.2,21.3Z" fill="#085a7f"/><path d="M177.8,62.9H138.1V195.7h39.7V62.9Z" fill="#085a7f"/><path d="M242.2,18.7H202.5V62.9H182.8V97.2h19.6v98.5h39.7V97.2h19.1V62.9H242.2V18.7Z" fill="#085a7f"/><path d="M329.6,58.4c-39.7,0-70.1,31.6-70.1,70.6s30.9,71,71,71c35.9,0,62.4-24.6,69.6-54.8H359.7c-4.3,8.1-12.2,17.7-28.7,17.7-18.9,0-31.6-14.3-31.6-33.7s12-33.8,29.9-33.8H331c16.5,0,24.4,9.6,28.7,18.7h40.2c-6.7-32.5-35.2-55.7-70.3-55.7Z" fill="#085a7f"/><path d="M407.3,18.7H447V75.1h.5c6.7-11.9,20.1-16.7,34.2-16.7s27.7,4.5,36.1,14.6c11.2,13.2,12.5,24.9,12.5,48.6v74.2H490.5V123.4c0-6.5,0-27.7-21.3-27.7S447,115.6,447,122v73.7H407.3Z" fill="#085a7f"/><path d="M447,18.7H407.3v177H447V122c0-6.5,0-26.3,22.2-26.3s21.3,21.3,21.3,27.7v72.2h39.7V121.5c0-23.7-1.2-35.4-12.5-48.6-8.4-10-23.4-14.6-36.1-14.6s-27.5,4.8-34.2,16.7H447V18.7Z" fill="#085a7f"/><path d="M670.7,154.1c-6.5,14.8-15.8,26.3-27,34a64.5,64.5,0,0,1-37.8,12c-38,0-70.3-30.9-70.3-70.3,0-37.1,29.2-71.3,69.6-71.3s70.1,32,70.1,72.5a53.6,53.6,0,0,1-1,10.5H574.8c2.4,15.8,15.6,25.1,31.1,25.1,12.2,0,18.7-5.5,24.2-12.4Zm-35.1-39.5c-1.7-7.9-9.6-22.7-30.1-22.7s-28.5,14.8-30.1,22.7Z" fill="#085a7f"/><path d="M680.8,62.9h37.3V77h.5c3.3-6.5,10.3-18.7,33.2-18.7V98.3c-18.4.5-31.3,4.3-31.3,24.4v73H680.8Z" fill="#085a7f"/><path d="M806.5,193.3c-.1-1,0-2,0-3.2s-.2-2.2-.3-3.3c-.4-3.3-1-6.9-.8-10.2.1-1.2.6-2.4.6-3.7s-1-4.6-1-7.2a16.6,16.6,0,0,0,0-2.9,26.5,26.5,0,0,0-1-3c-.6-2-1.2-4.1-1.7-6.2s-.4-2.2-.6-3.3a16.6,16.6,0,0,1-.4-1.6c-.1-.3,0-.9-.1-1.2a5.7,5.7,0,0,0-.6-1.2c-2.8-5.1-4.3-11-7.4-15.9a8.7,8.7,0,0,1-1.3-2.2,12.3,12.3,0,0,1-.2-1.7,18.6,18.6,0,0,1-.3-5c.5-3.3.8-6.8,1.5-10s2.8-8.6,4.4-12.8c.8-2.1,1.6-4.1,2.2-6.4.2-.8.2-1.6.5-2.4s.5-1,.7-1.5a29.7,29.7,0,0,0,2.1-4.8,25.8,25.8,0,0,1,1-3.6c.4-1.1,1.1-2,1.5-3s.6-3.2,2.1-3.2h.1a2.7,2.7,0,0,1,1.1,0c.6.1,1.3.5,2,.6a14.6,14.6,0,0,1,2.7.1l.6.4c.7.3,1.9.2,2.7.4s.6.5.9.6.8.1,1.1.3a1.9,1.9,0,0,1,.4,2.1c-.1.2.6.1.9.4s.3.7.5,1.2,1.4,1.2,1.4,2.3-1.2,1.9-2,2.6a21.7,21.7,0,0,1-2.3,2.1c-.5.3-1.4.5-2.2.8s-1.3.9-2,1.1l-1.6.5c-1.6.7-2.4,2.3-3.1,4-1.5,3.4-2,8.1-2.4,12.7s-.4,9.4-.9,14.1c-.2,2.1-.8,4-.4,6.1.1.6,1.5,1.4,2,1.8a20.1,20.1,0,0,1,3.4,3.2c.7.8,1.3,2.1,2.4,2.5s1,1.1,1.7,1.9.9,1.3,1.3,1.5c2,.8,3.8,2.7,5.4,4.4s1.6,1.3,2.4,2.1,1.7,2.8,2.8,2.6,2.1-2.1,1.8-3.5-.6-1.4-.7-2a11.5,11.5,0,0,0,0-1.4c-.1-.2-.5-.5-.7-.7a5.3,5.3,0,0,1-.8-2.4c-.1-1.2-.8-3.6.1-4.7s.8-.1.9-.3a9.6,9.6,0,0,0,.1-1.4,18.3,18.3,0,0,1,.4-3.8c.9-3.3,2.5-6.8,5.5-8.5s7.2-1.4,10.5-.4c5.6,1.7,7.4,7.3,6.9,12.7a8.6,8.6,0,0,0-.2,2.2c.1.4.7.5.8,1a4.6,4.6,0,0,1-.1,2.1c-.4,1.7-.7,4.3-1.8,5.2s-1,.5-1.4.9a18,18,0,0,0-.7,2.4c-.7,1.8-2.1,2.3-2.3,3.1s-.9,3.4-1.6,5-.7,1.3-.7,1.5,2.1,1,2.5,1.2a10.8,10.8,0,0,1,4.5,2.9,5.9,5.9,0,0,1,1.9,3.4,21.1,21.1,0,0,1-.5,7,9.1,9.1,0,0,0-.3,2.2,35.6,35.6,0,0,0,1,3.8,18.5,18.5,0,0,1,.4,4.5,16,16,0,0,1-.7,4.3c-.3,1.1-1.1,2.1-1.5,3.2a22.7,22.7,0,0,0-.7,2.7c-.2,1.6.4,3.2.4,5s-.9,2.7-.8,4.3a3,3,0,0,0,.1.5,71.6,71.6,0,1,0-41,1.4,21.7,21.7,0,0,0-.3-3.2A13.2,13.2,0,0,1,806.5,193.3Z" fill="#085a7f"/><path d="M174.1,49.7,157.8,38.1,141,49.6l6.7-18.7L131.5,19.1h19.9L157.5,0l6.3,19h20.1l-16,11.7Z" fill="#085a7f"/></svg>